<?xml version="1.0" encoding="UTF-8"?>
<svg version="1.1" xmlns="http://www.w3.org/2000/svg" width="1067" height="992">
<path d="M0 0 C12.29161531 8.83867038 15.39963639 20.32439746 18.3359375 34.61328125 C18.60459625 35.88431198 18.873255 37.15534271 19.15005493 38.46488953 C19.8626275 41.83697179 20.56435053 45.21122058 21.26373291 48.58605957 C21.95558926 51.91490201 22.65797971 55.24151637 23.359375 58.56835938 C25.02485749 66.48008257 26.6712744 74.39571377 28.3125 82.3125 C28.4558931 83.00401909 28.59928619 83.69553818 28.74702454 84.40801239 C30.60627061 93.37533095 32.46139037 102.34349798 34.3125 111.3125 C38.6081685 111.40515751 42.43366116 111.24619148 46.60546875 110.21875 C47.55953613 109.99243896 48.51360352 109.76612793 49.49658203 109.53295898 C50.48770996 109.29520752 51.47883789 109.05745605 52.5 108.8125 C67.97187576 105.31888978 80.21512662 105.11973618 94.5625 112.9375 C110.36718836 123.22594161 114.4969481 138.65605324 118.19067383 156.04589844 C118.67387713 158.36979173 119.15399581 160.69432877 119.63085938 163.01953125 C120.5979495 167.69149099 121.63981485 172.34558468 122.6875 177 C123.00826925 178.44130467 123.32863641 179.88269895 123.6484375 181.32421875 C123.86757813 182.31035156 124.08671875 183.29648438 124.3125 184.3125 C125.24449219 184.33828125 126.17648437 184.3640625 127.13671875 184.390625 C142.94485585 185.09391927 155.46835721 188.84391825 166.625 200.625 C172.31885219 207.47595293 175.24715755 214.18649988 177.12109375 222.87890625 C177.29070114 223.65588867 177.46030853 224.43287109 177.63505554 225.23339844 C179.93606806 235.97822256 181.87460296 246.79500132 183.85339355 257.60269165 C185.25794922 265.27216289 186.67848894 272.93869057 188.09765625 280.60546875 C188.33471598 281.88679467 188.33471598 281.88679467 188.57656479 283.19400597 C193.38629593 309.18285923 198.28765062 335.15457637 203.18569183 361.1269021 C203.56391083 363.13248118 203.94208484 365.13806873 204.32025146 367.14365768 C211.19646749 403.60991022 218.1099324 440.06885606 225.08780098 476.51580524 C231.67206798 510.90865792 238.20917799 545.31042245 244.73878783 579.71368569 C245.75799825 585.08360202 246.77755248 590.45345298 247.79727173 595.82327271 C249.04935415 602.41680683 250.30094428 609.01043419 251.55193824 615.60417491 C252.1963866 619.00093074 252.84098815 622.39765725 253.48608208 625.79429054 C254.87549148 633.11137566 256.25951972 640.42944376 257.63819885 647.74855804 C258.33619511 651.43773783 259.04307326 655.12515336 259.75036621 658.81256104 C260.20913518 661.22997711 260.66768049 663.64743564 261.12597656 666.06494141 C261.33830303 667.16030401 261.5506295 668.25566662 261.76939011 669.38422203 C264.87450418 685.87735118 264.42240133 700.42660439 255.05078125 714.9375 C246.12807007 727.12853011 233.91530134 733.18332829 219.3125 736.3125 C218.31042184 740.06217202 218.27411682 742.14030672 219.83203125 745.69140625 C220.36812012 746.93361938 220.36812012 746.93361938 220.91503906 748.20092773 C221.31432617 749.08337158 221.71361328 749.96581543 222.125 750.875 C222.53588867 751.80320557 222.94677734 752.73141113 223.37011719 753.68774414 C238.22625776 786.88351471 257.72432257 817.11555931 279.3125 846.3125 C279.73611816 846.88919434 280.15973633 847.46588867 280.59619141 848.06005859 C288.24129422 858.46322444 296.44775767 868.34505263 304.87036133 878.12060547 C308.64467152 882.50866854 312.31766875 886.97041212 315.96484375 891.46484375 C319.22288342 895.41677539 322.5679512 899.29165275 325.92382812 903.16064453 C329.67591055 907.50547872 333.19836695 911.98576588 336.59375 916.6171875 C338.38476892 918.7806573 338.38476892 918.7806573 342.3125 918.3125 C342.3125 921.2825 342.3125 924.2525 342.3125 927.3125 C223.1825 927.3125 104.0525 927.3125 -18.6875 927.3125 C-18.0275 926.9825 -17.3675 926.6525 -16.6875 926.3125 C-22.07660406 916.09886469 -29.47402742 907.26993329 -36.6875 898.3125 C-37.41018066 897.40757812 -37.41018066 897.40757812 -38.14746094 896.484375 C-44.83518687 888.1696424 -52.23505415 880.56363743 -59.75 873 C-60.66007813 872.08057617 -61.57015625 871.16115234 -62.5078125 870.21386719 C-67.82784828 864.91870928 -73.3177742 860.02124354 -79.17602539 855.3293457 C-82.49274368 852.66584713 -85.68314591 849.87301827 -88.875 847.0625 C-96.06383355 840.78298495 -103.44279631 834.75918049 -110.87744141 828.77441406 C-113.47314197 826.67796747 -116.04856533 824.55757874 -118.625 822.4375 C-119.48609375 821.74140625 -120.3471875 821.0453125 -121.234375 820.328125 C-122.87816713 818.97749325 -124.49316566 817.59108696 -126.078125 816.171875 C-126.83609375 815.51703125 -127.5940625 814.8621875 -128.375 814.1875 C-129.33986328 813.31738281 -129.33986328 813.31738281 -130.32421875 812.4296875 C-135.53926607 809.9643924 -143.29134478 812.76999179 -148.81567383 813.97631836 C-149.59248253 814.1430304 -150.36929123 814.30974243 -151.16963959 814.48150635 C-153.74532488 815.03516017 -156.31991774 815.59372894 -158.89453125 816.15234375 C-160.73888528 816.54989532 -162.58330319 816.94715062 -164.42778015 817.34413147 C-169.41116827 818.41762428 -174.39361021 819.49545024 -179.37588501 820.57409668 C-184.64458723 821.71398216 -189.91415404 822.8498578 -195.18359375 823.98632812 C-223.52546997 830.10121487 -251.8601415 836.24942831 -280.19445801 842.39923096 C-306.98807144 848.21445907 -333.78412479 854.01832064 -360.5859375 859.7956543 C-364.63554096 860.66868 -368.68485029 861.54304947 -372.73388672 862.41870117 C-384.29571231 864.91842466 -395.86157335 867.39754974 -407.43631744 869.83679962 C-409.58342387 870.29050753 -411.72964579 870.74818117 -413.87567139 871.20697021 C-417.47506764 871.97135584 -421.07800207 872.71470378 -424.68359375 873.44921875 C-425.66739517 873.66101273 -426.65119659 873.8728067 -427.66481018 874.09101868 C-439.44305807 876.42238093 -451.25571929 874.74015271 -461.64453125 868.55078125 C-476.3548832 858.30786861 -482.47458883 845.36566705 -485.66796875 827.93359375 C-486.04237337 826.01515808 -486.41680262 824.09672691 -486.79251003 822.17854595 C-487.17842925 820.19656032 -487.55717189 818.21331103 -487.93450928 816.22967529 C-489.12654184 810.02853583 -490.40445303 803.84543107 -491.67578125 797.66015625 C-492.07279759 795.71429524 -492.46980577 793.76843252 -492.86634159 791.82247353 C-500.39906684 754.86472237 -508.17233451 717.95879228 -516 681.0625 C-516.27021343 679.78877029 -516.54042686 678.51504059 -516.81882858 677.20271301 C-520.03604996 662.03865274 -523.25634426 646.87524588 -526.47804737 631.71213722 C-530.1636426 614.36554635 -533.84610727 597.01829223 -537.52310181 579.6698761 C-537.88249552 577.97425962 -538.2419315 576.27865211 -538.60140991 574.58305359 C-545.03713172 544.22603031 -551.38779273 513.85154642 -557.71676636 483.47210693 C-562.63071376 459.885992 -567.58101715 436.3086641 -572.625 412.75 C-578.08286891 387.2556481 -583.40306698 361.73435785 -588.65161133 336.19612122 C-589.95233872 329.87010866 -591.26160425 323.54598678 -592.58277893 317.22421265 C-593.34253311 313.58774819 -594.09858564 309.95051971 -594.85409546 306.31317139 C-595.19462762 304.67840157 -595.53686196 303.04398516 -595.88101196 301.40997314 C-599.44174653 284.49564452 -602.1380918 268.3861891 -592.15234375 252.9375 C-582.68621492 240.17224199 -571.5066479 234.51129088 -556.1875 231.1875 C-554.05145812 230.70850879 -551.91603048 230.22676957 -549.78125 229.7421875 C-548.76289062 229.51112305 -547.74453125 229.28005859 -546.6953125 229.04199219 C-542.30228975 227.97654154 -537.99844054 226.66653217 -533.6875 225.3125 C-534.22474782 216.6535626 -535.75637114 208.3552146 -537.55859375 199.87890625 C-537.8444456 198.51102701 -538.1296757 197.14301772 -538.4143219 195.77488708 C-539.15957057 192.19955186 -539.91173619 188.62571147 -540.66589355 185.05224609 C-541.87047156 179.33970864 -543.06516457 173.62510231 -544.25831795 167.9101696 C-544.67121995 165.93800776 -545.08780404 163.96661794 -545.50450134 161.99525452 C-552.04426054 130.81266434 -552.04426054 130.81266434 -544.28515625 117.99609375 C-538.1524387 109.46800888 -531.13112816 104.62841463 -520.9453125 102.0703125 C-520.13706024 101.86288422 -519.32880798 101.65545593 -518.49606323 101.44174194 C-505.15497387 98.09506962 -491.66966562 95.32479571 -478.22027969 92.45239258 C-474.09101706 91.56936882 -469.96289458 90.68104799 -465.8347168 89.79296875 C-460.72533665 88.69400407 -455.61591832 87.59522317 -450.50608826 86.49835205 C-440.12989766 84.27071903 -429.75636914 82.03132086 -419.38671875 79.7734375 C-418.73753164 79.63208689 -418.08834454 79.49073627 -417.41948509 79.34510231 C-414.12164615 78.62692746 -410.8238835 77.90840298 -407.52615356 77.18972778 C-376.48327784 70.4251252 -345.42938661 63.71152184 -314.375 57 C-273.93535333 48.25989573 -233.49763132 39.51096706 -193.0625 30.75 C-191.78852985 30.47398453 -190.51455971 30.19796906 -189.20198441 29.91358948 C-160.37210704 23.66732632 -131.5431983 17.41669456 -102.71914577 11.14360237 C-97.87764112 10.09008369 -93.03574832 9.03836526 -88.19360352 7.98779297 C-85.65640846 7.43719427 -83.11921756 6.88657645 -80.58203125 6.3359375 C-78.79648582 5.94847855 -78.79648582 5.94847855 -76.97486877 5.55319214 C-70.22575555 4.08689712 -63.47987182 2.60679931 -56.73669434 1.1134491 C-52.73287371 0.22799768 -48.72742854 -0.64993413 -44.72161865 -1.52633667 C-42.95453876 -1.91503401 -41.18824797 -2.30734285 -39.4229126 -2.70388794 C-25.32593051 -5.87032644 -12.91325554 -8.03248269 0 0 Z " fill="#010101" transform="translate(724.6875,64.6875)"/>
<path d="M0 0 C30.41387051 7.2087052 54.0687655 35.06303381 70.125 60.3125 C71.43466874 62.53113801 72.72530712 64.761084 74 67 C74.3623877 67.61987793 74.72477539 68.23975586 75.09814453 68.87841797 C91.15651059 96.56502206 100.92608576 127.7372061 107 159 C117.07974467 124.91487837 98.6125339 85.15200769 83.265625 55.66796875 C82 53 82 53 82 51 C83.32 50.67 84.64 50.34 86 50 C86.391875 50.75152344 86.78375 51.50304687 87.1875 52.27734375 C92.16061205 59.74772974 102.54848107 63.84216538 111 66 C116.28769498 66.80504699 120.61423539 66.18964699 125 63 C127.69797033 59.01769235 129.40135835 54.78913316 130 50 C156.14338968 67.94154194 173.56979212 97.67161726 184 127 C184.36665771 128.0214209 184.36665771 128.0214209 184.74072266 129.06347656 C192.25902209 150.40194294 195.81628813 173.41248246 199.4375 195.6875 C203.60209721 221.20575213 208.63791283 246.50055161 217 271 C217.32484375 271.95390625 217.6496875 272.9078125 217.984375 273.890625 C229.28911466 306.79247923 244.02096137 337.80664142 263 367 C263.38349609 367.59264648 263.76699219 368.18529297 264.16210938 368.79589844 C266.3934171 372.23077271 268.6884527 375.61879551 271 379 C271.78959307 380.17933244 272.57862035 381.35904382 273.3671875 382.5390625 C288.11026318 404.45527603 304.84654655 424.94216189 322 445 C322.47260254 445.55365234 322.94520508 446.10730469 323.43212891 446.67773438 C324.91200106 448.41108713 326.39318241 450.14331014 327.875 451.875 C328.60759033 452.73146118 328.60759033 452.73146118 329.35498047 453.60522461 C332.08758447 456.79266979 334.8396436 459.96145386 337.61328125 463.11328125 C338.20963379 463.79342285 338.80598633 464.47356445 339.42041016 465.17431641 C340.57634022 466.49122706 341.73602953 467.80484989 342.89990234 469.11474609 C345.18266153 471.71908026 346.89321631 473.67964894 348 477 C306.76751086 477.36629861 265.53520958 477.64819178 224.30141545 477.81704527 C219.43238629 477.83705635 214.56336032 477.85776553 209.69433594 477.87890625 C208.72500924 477.88310322 207.75568254 477.88730018 206.75698231 477.89162433 C191.06574647 477.96122834 175.37544943 478.08736974 159.68477036 478.23444474 C143.58210396 478.3841215 127.47992886 478.47295067 111.37659538 478.50541592 C101.44095562 478.52736115 91.50796916 478.59663437 81.57314639 478.72666347 C74.75841413 478.81130732 67.94505127 478.83678883 61.12983163 478.81602204 C57.19775685 478.80577979 53.27031217 478.82134713 49.33906364 478.9072876 C26.34806517 479.38564321 26.34806517 479.38564321 20.78712988 475.42323303 C17.3414367 471.70601021 15.37526701 467.62325653 13.71309066 462.87582016 C12.72946908 460.28835507 11.25262709 458.1987613 9.6015625 455.9921875 C8.86268799 454.95892334 8.86268799 454.95892334 8.10888672 453.90478516 C7.6192041 453.23495605 7.12952148 452.56512695 6.625 451.875 C6.08246582 451.12911621 5.53993164 450.38323242 4.98095703 449.61474609 C-0.31818946 442.41964519 -6.03013737 435.64348902 -12 429 C-12.70769531 428.20770996 -12.70769531 428.20770996 -13.4296875 427.39941406 C-22.10402681 417.71266913 -31.0849263 408.42194077 -41 400 C-42.05128606 399.09694151 -43.10202035 398.19324046 -44.15234375 397.2890625 C-56.51736155 386.65246935 -68.96412644 376.13277457 -81.63671875 365.86328125 C-87.4364819 361.14726946 -93.13912975 356.33314804 -98.796875 351.44873047 C-102.41518892 348.3324079 -106.08559398 345.29923727 -109.8125 342.3125 C-114.11665215 338.82247633 -118.01845878 335.09164311 -121.87890625 331.12109375 C-123.88623797 329.11376203 -125.95916287 327.27077096 -128.125 325.4375 C-132.17734958 321.942448 -135.56028465 318.08807439 -139 314 C-140.25296875 312.57880859 -140.25296875 312.57880859 -141.53125 311.12890625 C-161.37157799 288.50372282 -175.28016826 261.771452 -174 231 C-171.5840783 231.93438087 -169.23197947 232.88007099 -166.9296875 234.0703125 C-160.35921422 237.4429889 -153.83257189 238.51118887 -146.6640625 236.26953125 C-141.54239316 233.93717254 -138.40964678 230.90130938 -135.92578125 225.7890625 C-133.48020041 218.42136327 -133.84534611 209.34144566 -137.25 202.375 C-139.18076264 198.97828795 -141.52313494 196.01669463 -144 193 C-116.26205833 191.61885768 -95.29977446 207.21728746 -75.3671875 224.89453125 C-71.78901133 228.14239821 -68.39072343 231.55848498 -65 235 C-64.21753906 235.78246094 -63.43507813 236.56492187 -62.62890625 237.37109375 C-54.41927083 245.58072917 -46.20963542 253.79036458 -38 262 C-47.02761792 243.90325788 -57.36868895 227.96021286 -71 213 C-71.68578125 212.24203125 -72.3715625 211.4840625 -73.078125 210.703125 C-85.47508046 197.68111296 -100.84534939 188.65938309 -117.52734375 182.32421875 C-118.67332031 181.88722656 -119.81929687 181.45023438 -121 181 C-122.21816406 180.58363281 -123.43632813 180.16726563 -124.69140625 179.73828125 C-128.6429287 177.66221574 -130.13615487 175.38830523 -132 171.5 C-132.32830811 170.85144043 -132.65661621 170.20288086 -132.99487305 169.53466797 C-137.02749751 161.31063144 -140.05195132 152.65913378 -143 144 C-143.27158936 143.21020752 -143.54317871 142.42041504 -143.82299805 141.60668945 C-149.68116215 124.36389229 -149.91507609 106.98836688 -143 90 C-141.33203125 87.484375 -141.33203125 87.484375 -140 86 C-139.53851562 86.45890625 -139.07703125 86.9178125 -138.6015625 87.390625 C-129.72882242 95.73731329 -120.22696548 98.33562591 -108.26953125 98.21484375 C-102.66325086 97.84645018 -98.65736983 96.70098483 -94.625 92.5625 C-90.49306677 86.04675913 -90.25055748 80.69307258 -91 73 C-91.97339226 69.75855584 -93.35004226 66.94508586 -95 64 C-95.5775 62.824375 -96.155 61.64875 -96.75 60.4375 C-97.1625 59.633125 -97.575 58.82875 -98 58 C-77.99675969 59.05280212 -61.98179244 69.49331701 -48 83 C-46.65298224 84.15422898 -45.29935356 85.30081347 -43.9375 86.4375 C-27.99512788 100.44746338 -16.07307921 119.06688863 -5 137 C-4.59362305 137.65581055 -4.18724609 138.31162109 -3.76855469 138.98730469 C14.63844775 168.91534324 14.63844775 168.91534324 19 182 C18.8186729 143.28666326 -8.64835984 102.88551984 -34.5625 76.1875 C-40.50317837 70.39776445 -46.75843573 64.62705266 -54.1875 60.875 C-55.8203125 59.75390625 -55.8203125 59.75390625 -57 58 C-59.08153089 44.10660729 -55.44724145 28.81798715 -48 17 C-47.34257813 17.54527344 -47.34257813 17.54527344 -46.671875 18.1015625 C-36.73389878 25.97922658 -25.57969888 31.56790342 -12.72265625 31.3203125 C-7.5638489 30.71339399 -3.60579346 28.70939304 -0.0625 24.9375 C1.94855936 21.27027411 2.16185803 18.23797184 2.1875 14.125 C2.20167969 13.09632813 2.21585938 12.06765625 2.23046875 11.0078125 C1.99449134 7.92810729 1.20731817 5.81548507 0 3 C0 2.01 0 1.02 0 0 Z " fill="#FEFEFE" transform="translate(703,515)"/>
<path d="M0 0 C7.13624174 5.7089934 9.48457204 13.6130888 11.11328125 22.28125 C11.28815567 23.15860809 11.46303009 24.03596619 11.64320374 24.93991089 C12.01597137 26.81611243 12.38361349 28.6933385 12.746521 30.57147217 C13.51882021 34.56755637 14.31609601 38.55853093 15.11236572 42.54989624 C15.51375881 44.56220897 15.91394768 46.57476228 16.31292725 48.58755493 C17.89330459 56.54228576 19.60145363 64.46093214 21.375 72.375 C25.87915534 92.63229439 29.91838481 112.98744504 34.03701782 133.32579041 C36.26752221 144.33505833 38.53142251 155.3373012 40.80664062 166.33740234 C42.57248676 174.88487335 44.29745436 183.4397273 46 192 C40.11532745 193.70400196 34.21737939 195.18344596 28.25 196.5625 C27.14873779 196.81717041 26.04747559 197.07184082 24.9128418 197.33422852 C12.97885169 200.05826534 0.99377052 202.53396474 -10.99185181 205.0189209 C-24.26877428 207.77281565 -37.50879838 210.64501733 -50.72363281 213.68286133 C-57.77421172 215.2971529 -64.83188838 216.77592952 -71.9375 218.125 C-88.30400431 221.30141598 -102.50456453 225.14926758 -113 239 C-114.89654966 242.21553237 -116.45434935 245.54395265 -117.99609375 248.94140625 C-118.89360407 250.8432293 -119.79139915 252.74491799 -120.68945312 254.64648438 C-122.06892701 257.60804313 -123.44204297 260.57236318 -124.80883789 263.53979492 C-126.14669122 266.4315777 -127.50767499 269.31160851 -128.87109375 272.19140625 C-129.26719345 273.07075333 -129.66329315 273.9501004 -130.07139587 274.85609436 C-133.59073171 282.24973764 -138.91166917 288.46258033 -146.81396484 291.38574219 C-151.70053178 292.75882711 -156.67629002 293.72937858 -161.65447998 294.7026062 C-165.44876371 295.44526934 -169.23755949 296.21523783 -173.02734375 296.98046875 C-173.83181946 297.1421907 -174.63629517 297.30391266 -175.46514893 297.47053528 C-184.9515718 299.38214511 -194.41381482 301.40522827 -203.875 303.4375 C-204.76192535 303.62773743 -205.64885071 303.81797485 -206.56265259 304.01397705 C-219.45106107 306.78023115 -232.32402023 309.61162664 -245.18792725 312.48947144 C-258.33301348 315.42922795 -271.49952131 318.26225202 -284.6734314 321.06973267 C-297.81517837 323.87149359 -310.93763606 326.74997678 -324.04934692 329.68887329 C-335.36582013 332.22313826 -346.70435201 334.61237356 -358.06811523 336.92700195 C-364.70465053 338.28821189 -371.29809038 339.75147905 -377.875 341.375 C-388.02276014 343.87805208 -398.25797017 345.92666463 -408.5 348 C-419.64245212 350.25564962 -430.75115152 352.55282626 -441.79296875 355.26635742 C-448.50256736 356.9078731 -455.24158387 358.38571765 -462 359.8125 C-463.02279053 360.03188232 -464.04558105 360.25126465 -465.09936523 360.47729492 C-466.05657471 360.67685791 -467.01378418 360.8764209 -468 361.08203125 C-468.845625 361.25968018 -469.69125 361.4373291 -470.5625 361.62036133 C-473.0807256 362.01257295 -475.45563816 362.0667327 -478 362 C-484.07784905 333.77006618 -489.94780462 305.50828567 -495.56764221 277.18371582 C-497.24492427 268.74222363 -498.99233776 260.31632228 -500.765625 251.89453125 C-501.72972143 247.31187025 -502.67280723 242.72507056 -503.609375 238.13671875 C-506.50403888 223.96643749 -509.44749604 209.81115711 -512.5625 195.6875 C-516.78652414 176.53011071 -520.91327191 157.34825332 -524.41015625 138.04296875 C-524.90590305 135.48544054 -525.49453366 133.00901606 -526.1875 130.5 C-527.8972978 123.13471718 -527.38481282 118.82996283 -523.875 112.2734375 C-517.43729354 104.46771841 -510.04020163 102.55619347 -500.375 100.625 C-499.01360248 100.33706603 -497.65260842 100.04721884 -496.29199219 99.75561523 C-492.62803033 98.97551173 -488.95937782 98.22019248 -485.28918457 97.47003174 C-481.43746893 96.67916995 -477.58992909 95.86853223 -473.7421875 95.05859375 C-472.16911433 94.72759068 -470.59603487 94.39661756 -469.02294922 94.06567383 C-468.23789001 93.90048248 -467.45283081 93.73529114 -466.64398193 93.56509399 C-464.23332773 93.05899981 -461.82204721 92.55598148 -459.41064453 92.0534668 C-448.65981933 89.80752751 -437.94873718 87.41885671 -427.25 84.9375 C-412.19975496 81.44869029 -397.09492227 78.29349478 -381.95553589 75.21818542 C-371.97635122 73.18688067 -362.02530769 71.02420148 -352.07080078 68.87597656 C-347.33889457 67.85640678 -342.60495016 66.84640643 -337.87109375 65.8359375 C-321.58714391 62.35858717 -305.30565895 58.87708901 -289.05737305 55.23608398 C-278.83743231 52.95028159 -268.59932044 50.751051 -258.36117554 48.5486145 C-247.55859418 46.22297908 -236.77324468 43.83276405 -226 41.375 C-215.11353605 38.89364395 -204.20428659 36.56872399 -193.26367188 34.33935547 C-183.48383316 32.33509548 -173.74091261 30.18441923 -164 28 C-153.08009949 25.55119036 -142.15366923 23.17190788 -131.1875 20.9375 C-121.55391035 18.97363319 -111.95843944 16.8828363 -102.375 14.6875 C-87.8529289 11.36347421 -73.27958852 8.30769252 -58.69189453 5.28613281 C-50.61497066 3.61056291 -42.54326286 1.92505614 -34.5 0.09375 C-33.25573242 -0.18911865 -32.01146484 -0.4719873 -30.72949219 -0.76342773 C-28.49415042 -1.27677839 -26.26027512 -1.79658088 -24.02832031 -2.32446289 C-14.87285929 -4.43300708 -8.29617348 -4.76522205 0 0 Z " fill="#FDFDFD" transform="translate(717,78)"/>
<path d="M0 0 C8.82830983 7.19770783 12.0791006 15.30310916 13.78125 26.45703125 C13.82491775 28.45655448 13.83828385 30.45784463 13.78125 32.45703125 C14.36132812 32.410625 14.94140625 32.36421875 15.5390625 32.31640625 C21.16328957 32.05654097 24.42922649 32.51948617 28.78125 36.45703125 C31.9273265 41.62141203 32.90210611 46.92564164 34.0078125 52.78125 C34.20096039 53.76446732 34.39410828 54.74768463 34.59310913 55.76069641 C35.20572096 58.88710296 35.80642129 62.01564945 36.40625 65.14453125 C37.01556769 68.28362258 37.62732956 71.42222159 38.24081421 74.5605011 C38.62105798 76.50978859 38.99845371 78.45963426 39.37271118 80.41007996 C39.54313934 81.29142105 39.7135675 82.17276215 39.88916016 83.08081055 C40.11208237 84.2428022 40.11208237 84.2428022 40.33950806 85.42826843 C40.78395098 87.64371957 40.78395098 87.64371957 41.78125 90.45703125 C42.28564554 95.72424372 42.40747089 100.1082478 40.15625 104.95703125 C35.29633776 110.07272835 29.26380071 111.23088431 22.60546875 112.578125 C21.722043 112.76415787 20.83861725 112.95019073 19.92842102 113.14186096 C17.11009618 113.73389443 14.28960755 114.31469771 11.46875 114.89453125 C7.78446849 115.66078702 4.10118942 116.4317888 0.41796875 117.203125 C-0.4818573 117.39028076 -1.38168335 117.57743652 -2.30877686 117.77026367 C-8.80129889 119.12973529 -15.26022338 120.60308406 -21.69563293 122.21202087 C-28.1568554 123.79170013 -35.12521504 125.33170916 -41.40234375 122.45703125 C-50.76131262 115.60805611 -50.90719232 99.17590059 -52.84375 88.58203125 C-53.31122513 86.05091848 -53.78024932 83.52010049 -54.25033569 80.98947144 C-54.54044971 79.42497275 -54.82880424 77.86014647 -55.11514282 76.29495239 C-55.83777693 72.33515495 -55.83777693 72.33515495 -56.74594116 68.41525269 C-58.0188229 63.14338782 -58.4743792 56.38502865 -56.3125 51.34375 C-53.59060201 47.8279651 -50.45694801 46.44265869 -46.21875 45.45703125 C-46.4353125 44.77640625 -46.651875 44.09578125 -46.875 43.39453125 C-49.76232744 33.34235424 -51.70547905 21.62284542 -47.03125 11.83203125 C-46.13708899 10.34673046 -45.20301662 8.88421785 -44.21875 7.45703125 C-43.496875 6.38453125 -42.775 5.31203125 -42.03125 4.20703125 C-30.35001515 -7.2146206 -13.7080664 -9.53289829 0 0 Z " fill="#030303" transform="translate(663.21875,135.54296875)"/>
<path d="M0 0 C2 2 2 2 2.125 5.625 C2.08375 6.73875 2.0425 7.8525 2 9 C-2.85653936 11.23908962 -7.50911035 12.73106148 -12.765625 13.76171875 C-13.5032457 13.91312317 -14.24086639 14.06452759 -15.00083923 14.22052002 C-16.58744665 14.54574804 -18.17470567 14.86781062 -19.76254272 15.1869812 C-24.0547735 16.05065119 -28.34173778 16.93972159 -32.62890625 17.828125 C-33.94203545 18.09960609 -33.94203545 18.09960609 -35.2816925 18.37657166 C-43.61263918 20.10821232 -51.90074571 22.00729848 -60.1875 23.9375 C-78.03173251 28.0825257 -95.96033436 31.80053391 -113.89707947 35.52072144 C-122.89230462 37.38845143 -131.86797826 39.34075282 -140.84130859 41.31054688 C-144.67006722 42.14625675 -148.50091458 42.97205374 -152.33203125 43.796875 C-168.64099709 47.30942552 -184.94005472 50.86063491 -201.22207642 54.49615479 C-214.48824719 57.45729674 -227.76950612 60.34491057 -241.06079102 63.19116211 C-247.72282593 64.62072627 -254.3754878 66.06844687 -261.00390625 67.6484375 C-262.02500488 67.89053955 -263.04610352 68.1326416 -264.09814453 68.38208008 C-265.91281439 68.8169455 -267.72528002 69.26118526 -269.53466797 69.7175293 C-273.97269904 70.78150354 -277.51734006 71.41665742 -282 70 C-284 67 -284 67 -284 64 C-283 61 -283 61 -280.5534668 59.44995117 C-276.14405109 57.65073991 -271.80632768 56.71405285 -267.14453125 55.80078125 C-266.1826741 55.60480347 -265.22081696 55.40882568 -264.22981262 55.20690918 C-262.16566137 54.78689181 -260.10076762 54.37051002 -258.03521729 53.95742798 C-252.57573559 52.86488024 -247.12194948 51.74463339 -241.66796875 50.625 C-240.57826782 50.40181595 -239.48856689 50.1786319 -238.36584473 49.94868469 C-229.08608812 48.0390069 -219.85046762 45.9672607 -210.625 43.8125 C-199.28065448 41.16964401 -187.91509405 38.69381125 -176.5 36.375 C-163.19258918 33.67094495 -149.92739149 30.81275713 -136.6796875 27.82861328 C-129.49657716 26.21107901 -122.31141006 24.60280719 -115.125 23 C-114.35578217 22.82832306 -113.58656433 22.65664612 -112.79403687 22.47976685 C-102.69292177 20.22819934 -92.57917637 18.06277389 -82.4375 16 C-71.62897914 13.80025687 -60.87326345 11.41121514 -50.125 8.9375 C-48.63022393 8.5943331 -47.13543242 8.25123345 -45.640625 7.90820312 C-40.21710287 6.66268605 -34.79363578 5.41707405 -29.37353516 4.15673828 C-26.23037614 3.4278036 -23.08451232 2.71208044 -19.9375 2 C-19.05916504 1.79238037 -18.18083008 1.58476074 -17.27587891 1.37084961 C-11.59268019 0.10082074 -5.82147046 -0.76044662 0 0 Z " fill="#080808" transform="translate(547,190)"/>
<path d="M0 0 C0.65161907 5.10434938 0.65161907 5.10434938 -1.16040039 7.5949707 C-3.62247576 9.47542774 -5.78100449 9.89190166 -8.80859375 10.54296875 C-10.01169189 10.80787109 -11.21479004 11.07277344 -12.4543457 11.34570312 C-13.78202758 11.6264734 -15.10974686 11.90706688 -16.4375 12.1875 C-17.82600129 12.48914866 -19.21426195 12.79190677 -20.60229492 13.09570312 C-23.55055102 13.73979663 -26.49996458 14.3781993 -29.45019531 15.01318359 C-33.92816743 15.98018475 -38.39833196 16.9800967 -42.8671875 17.98828125 C-58.47198488 21.50308735 -74.09650259 24.87827361 -89.77246094 28.06100464 C-100.03721303 30.14728256 -110.25188747 32.39878613 -120.44775391 34.80126953 C-129.66287545 36.95897754 -138.92224237 38.86440421 -148.19580078 40.75244141 C-156.05659677 42.36311442 -163.8775452 44.09699943 -171.6875 45.9375 C-181.75755375 48.30839246 -191.86244818 50.44299132 -202 52.5 C-213.19596859 54.77252827 -224.34532315 57.17394739 -235.46728516 59.78979492 C-244.95756993 62.01527344 -254.48134861 64.06368434 -264.01708984 66.08422852 C-265.69085693 66.43892212 -265.69085693 66.43892212 -267.3984375 66.80078125 C-268.38505371 67.00872314 -269.37166992 67.21666504 -270.38818359 67.4309082 C-271.97457567 67.77656907 -273.55648333 68.1452834 -275.12744141 68.55541992 C-278.19284567 69.28320365 -280.87091688 69.2844621 -284 69 C-286 67.3125 -286 67.3125 -287 65 C-287 62.4375 -287 62.4375 -286 60 C-282.47079991 57.48071465 -279.31248036 56.42184784 -275.08203125 55.60546875 C-273.92372803 55.37537109 -272.7654248 55.14527344 -271.57202148 54.90820312 C-270.33137939 54.67037109 -269.0907373 54.43253906 -267.8125 54.1875 C-265.17394408 53.66264984 -262.53589234 53.13577404 -259.8984375 52.60546875 C-259.23188644 52.47220184 -258.56533539 52.33893494 -257.87858582 52.20162964 C-251.53485191 50.92535948 -245.23560326 49.48270787 -238.9375 48 C-226.72200359 45.14075929 -214.46755561 42.49553156 -202.1953125 39.89208984 C-193.79410226 38.10774189 -185.39762871 36.30110974 -177 34.5 C-173.36852332 33.72119673 -169.73701677 32.94253304 -166.10546875 32.1640625 C-165.22900192 31.97617661 -164.3525351 31.78829071 -163.44950867 31.5947113 C-158.3592011 30.5040147 -153.26797653 29.41778602 -148.17578125 28.3359375 C-136.38857987 25.82863349 -124.62387064 23.24403473 -112.875 20.5625 C-101.92318617 18.06288365 -90.94712697 15.73049952 -79.9375 13.5 C-63.10422134 10.08764198 -46.40107586 6.21253238 -29.69824219 2.20849609 C-26.67555985 1.4855999 -23.65056556 0.77321371 -20.625 0.0625 C-19.7577832 -0.14906738 -18.89056641 -0.36063477 -17.99707031 -0.57861328 C-5.30993089 -3.53995393 -5.30993089 -3.53995393 0 0 Z " fill="#080808" transform="translate(562,249)"/>
<path d="M0 0 C1.41113901 2.55768945 1.56152444 3.93468727 1 6.8125 C-3.46748408 11.72192874 -9.21133144 12.24330488 -15.4375 13.4375 C-17.29739157 13.81486569 -19.15726116 14.19234613 -21.01660156 14.57241821 C-22.38833607 14.85236869 -23.76042076 15.13060755 -25.1328125 15.40731812 C-33.91541383 17.18267854 -42.66266048 19.12042944 -51.41482544 21.03909302 C-67.71557468 24.60966611 -84.03295115 28.09034057 -100.36935425 31.49359131 C-111.79745198 33.87876894 -123.16206102 36.45822637 -134.51855469 39.16650391 C-145.72240549 41.80931752 -156.98829938 44.10554018 -168.27084351 46.38409424 C-179.81671103 48.71720504 -191.31480368 51.17000272 -202.77246094 53.91040039 C-226.07315152 59.45885227 -226.07315152 59.45885227 -231 56.6875 C-232.54297074 53.79442987 -231.91256088 51.87609725 -231 48.8125 C-227.63195341 46.56713561 -224.58911393 45.90924331 -220.703125 45.11328125 C-219.97092239 44.95768234 -219.23871979 44.80208344 -218.48432922 44.64176941 C-216.90242477 44.30623908 -215.31990313 43.97360827 -213.73684692 43.64355469 C-209.502875 42.76069135 -205.27327085 41.8572832 -201.04296875 40.95703125 C-200.18650253 40.77540436 -199.33003632 40.59377747 -198.44761658 40.40664673 C-190.80205202 38.78160415 -183.18134494 37.05869564 -175.5625 35.3125 C-164.06598816 32.68881784 -152.54309039 30.22108397 -141 27.8125 C-125.47558673 24.57276792 -110.00334538 21.14853771 -94.54199219 17.61962891 C-81.19308147 14.57775554 -67.83095181 11.60353795 -54.4296875 8.80078125 C-53.59500443 8.62605789 -52.76032135 8.45133453 -51.90034485 8.27131653 C-47.78282465 7.41024493 -43.66448632 6.55342403 -39.54467773 5.70336914 C-38.00491397 5.38360834 -36.46527971 5.06322322 -34.92578125 4.7421875 C-34.17757614 4.58650803 -33.42937103 4.43082855 -32.65849304 4.27043152 C-28.94283337 3.4839855 -25.25465564 2.64006899 -21.57958984 1.68066406 C-20.86812302 1.4951297 -20.15665619 1.30959534 -19.42362976 1.11843872 C-17.49209713 0.60652322 -15.56459532 0.07946571 -13.63745117 -0.44873047 C-4.03903525 -2.39817718 -4.03903525 -2.39817718 0 0 Z " fill="#080808" transform="translate(519,317.1875)"/>
<path d="M0 0 C3.24702557 3.16796756 6.23013237 6.39567612 9.0625 9.9375 C12.63714769 14.35673999 16.28722365 18.69632775 20 23 C24.29882476 27.98776924 28.50295351 33.03902983 32.65234375 38.15234375 C35.91038342 42.10427539 39.2554512 45.97915275 42.61132812 49.84814453 C46.36341055 54.19297872 49.88586695 58.67326588 53.28125 63.3046875 C55.07226892 65.4681573 55.07226892 65.4681573 59 65 C59 67.97 59 70.94 59 74 C53.65267667 74.78498975 48.28633823 75.43712429 43 74 C38.91317936 70.82250987 36.24523824 67.11339441 33.33300781 62.87304688 C31.13346767 59.78241098 28.62422506 56.97418957 26.125 54.125 C25.11750642 52.9513641 24.11100638 51.77687463 23.10546875 50.6015625 C20.99546291 48.14781801 18.87175345 45.70680044 16.73828125 43.2734375 C7.64365629 32.88765017 -1.0273668 22.27558125 -9 11 C-8.51789062 10.45730469 -8.03578125 9.91460938 -7.5390625 9.35546875 C-6.90742187 8.64003906 -6.27578125 7.92460938 -5.625 7.1875 C-4.68527344 6.12595703 -4.68527344 6.12595703 -3.7265625 5.04296875 C-1.859401 2.91196181 -1.859401 2.91196181 0 0 Z " fill="#090909" transform="translate(1008,918)"/>
<path d="M0 0 C7.38688289 1.64986217 14.26597943 3.50739964 21 7 C22.16595703 7.59554687 22.16595703 7.59554687 23.35546875 8.203125 C36.73142669 15.60349601 46.21272033 26.42544066 53 40 C53.12082534 41.66345582 53.1753794 43.33220591 53.1875 45 C53.20167969 45.886875 53.21585938 46.77375 53.23046875 47.6875 C53 50 53 50 51 52 C43.43992403 53.14667819 35.61807343 51.85538857 29 48 C24.0474756 43.11712048 21.67495582 37.35174998 18.875 31.0625 C14.80917894 22.20799849 10.26661695 14.48365787 4.21484375 6.86328125 C2.45384399 4.58671542 1.12961613 2.62300696 0 0 Z " fill="#F9F9F9" transform="translate(547,549)"/>
<path d="M0 0 C6.922059 3.90300773 10.22166 9.07101153 12.33203125 16.6171875 C13.0859167 20.53305292 13.48247904 24.47114339 13.875 28.4375 C9.91089518 29.2791856 5.94562233 30.11511794 1.97924805 30.94604492 C0.63387418 31.2286973 -0.71118734 31.51284109 -2.0559082 31.79858398 C-9.4022395 33.35855244 -16.63873996 34.78830731 -24.125 35.4375 C-28.40868443 16.00793134 -28.40868443 16.00793134 -24.5 8.5 C-18.12739234 0.28269012 -10.2456349 -4.57324316 0 0 Z " fill="#FAFAFA" transform="translate(652.125,142.5625)"/>
<path d="M0 0 C11.05001775 0.7534103 20.41323268 6.3745986 29 13 C30.546875 14.1446875 30.546875 14.1446875 32.125 15.3125 C39.54033287 22.24422421 48.20188519 32.25163543 49.28125 42.73046875 C49 45 49 45 47 47 C39.14435574 48.48662591 31.7746349 45.88080217 25 42 C20.32609423 38.16072026 18.48983961 34.14719366 16.3125 28.6875 C11.97726816 18.35494964 6.19898504 9.29847756 0 0 Z " fill="#F8F9F8" transform="translate(645,487)"/>
<path d="M0 0 C2.53798631 2.43646686 4.8188426 4.98540299 7.0625 7.6875 C14.71169529 16.397298 23.83391576 22.39445752 33.8059082 28.10668945 C38.02452299 30.56964359 41.46438463 32.6768751 44 37 C44.53125 39.97265625 44.53125 39.97265625 44.5 43.0625 C44.5103125 44.08472656 44.520625 45.10695313 44.53125 46.16015625 C43.87306819 49.67852519 42.82825079 50.85997365 40 53 C33.08771046 54.05441705 28.59105016 52.02163257 23 48 C16.51573849 42.67278143 12.15591989 36.22459424 8 29 C7.52433594 28.19691406 7.04867187 27.39382813 6.55859375 26.56640625 C2.14240792 18.53817589 -0.32777794 9.1950339 0 0 Z " fill="#F9F9F8" transform="translate(512,687)"/>
<path d="M0 0 C14.53000794 6.15206719 24.54574352 16.9611051 30.9375 31.1875 C31.24453857 31.86498291 31.55157715 32.54246582 31.86791992 33.24047852 C33.59628456 37.30156244 34.43497378 40.59003503 34 45 C33.67 45.33 33.34 45.66 33 46 C25.80024573 45.73819075 18.98200075 43.4109266 13.43383789 38.65844727 C11.8039648 36.77325607 11.39097433 35.53045079 10.859375 33.11328125 C10.67914795 32.34685303 10.4989209 31.5804248 10.31323242 30.79077148 C10.12736572 29.97294189 9.94149902 29.1551123 9.75 28.3125 C7.75909938 20.09401806 4.94254375 12.66829124 1.35546875 5.02734375 C0 2 0 2 0 0 Z " fill="#F7F7F7" transform="translate(787,523)"/>
<path d="M0 0 C2.63016161 2.1727422 4.47336894 3.94673788 6 7 C6.35322867 12.41617299 6.35322867 12.41617299 4.96484375 14.7109375 C3.55311652 18.06021748 4.04119749 21.21836943 4.375 24.75 C4.43171875 25.44738281 4.4884375 26.14476562 4.546875 26.86328125 C4.68767872 28.57639312 4.84245972 30.28834611 5 32 C2.03 32.66 -0.94 33.32 -4 34 C-5.12865091 30.31307369 -5.98530836 27.1733614 -6.3125 23.3125 C-7.16875501 19.18690766 -8.58855718 18.3027239 -12 16 C-13.75158547 12.49682906 -13.6837198 8.81305274 -13 5 C-9.13875112 0.3853367 -5.96045269 -1.08371867 0 0 Z " fill="#F8F8F8" transform="translate(658,198)"/>
<path d="M0 0 C7.15193175 6.97565174 13.33734248 14.78001327 19 23 C18.319375 23.37125 17.63875 23.7425 16.9375 24.125 C13.31930991 26.43448304 10.19966425 29.15073126 7 32 C5.26883192 29.81405921 3.54003837 27.62630663 1.8125 25.4375 C1.08836914 24.52387695 1.08836914 24.52387695 0.34960938 23.59179688 C-2.89407315 19.47732709 -5.98391063 15.28428051 -9 11 C-8.51789062 10.45730469 -8.03578125 9.91460938 -7.5390625 9.35546875 C-6.90742187 8.64003906 -6.27578125 7.92460938 -5.625 7.1875 C-4.68527344 6.12595703 -4.68527344 6.12595703 -3.7265625 5.04296875 C-1.859401 2.91196181 -1.859401 2.91196181 0 0 Z " fill="#808080" transform="translate(1008,918)"/>
<path d="M0 0 C0.66 0.66 1.32 1.32 2 2 C1.34 2 0.68 2 0 2 C0 1.34 0 0.68 0 0 Z " fill="#FEFEFE" transform="translate(0,990)"/>
<path d="M0 0 C0.99 0.495 0.99 0.495 2 1 C1.01 1.495 1.01 1.495 0 2 C0 1.34 0 0.68 0 0 Z " fill="#FBFBFB" transform="translate(0,0)"/>
<path d="M0 0 C0.66 0 1.32 0 2 0 C1.67 0.66 1.34 1.32 1 2 C0.67 1.34 0.34 0.68 0 0 Z " fill="#FFFFFF" transform="translate(1065,0)"/>
</svg>
