<?xml version="1.0" encoding="UTF-8"?>
<!-- Generated by Pixelmator Pro 4.0 -->
<svg width="668" height="708" viewBox="0 0 668 708" xmlns="http://www.w3.org/2000/svg">
    <path id="path1" fill="#000000" stroke="none" d="M 325.19574 497.803772 C 334.534912 519.6698 351.125 534.694336 369.440979 548.126465 C 380.859802 556.500549 392.499084 564.573914 404.040649 572.78064 C 422.857483 586.160339 438.760925 602.245422 450.916504 622.033203 C 461.031677 638.49939 471.674316 654.64093 482.019409 670.966797 C 485.187012 675.965698 484.960571 676.424316 479.332397 677.817017 C 475.133179 678.856201 470.846558 679.579407 466.704712 680.80188 C 463.304626 681.805481 461.283142 681.147156 459.35553 677.910889 C 451.683105 665.029968 443.274048 652.574219 435.916199 639.522156 C 421.121155 613.277283 400.529236 592.877625 376.318054 575.169739 C 365.083191 566.952759 355.343933 564.722473 341.74176 567.873962 C 292.475372 579.288696 242.88913 589.324158 193.41748 599.851379 C 187.06955 601.202087 180.725006 602.63031 174.214722 600.460449 C 166.945068 598.037537 161.671021 593.700928 159.584717 586.06665 C 154.889923 568.887329 151.665619 551.374573 147.913269 533.985901 C 138.899872 492.217163 130.064911 450.409302 121.314819 408.584412 C 110.249725 355.693665 99.273895 302.783936 88.406219 249.852356 C 85.37207 235.074463 93.370544 223.244812 108.59549 220.064331 C 112.821381 219.18158 113.639862 217.78833 112.790222 213.807373 C 109.215057 197.055542 105.835236 180.261047 102.51532 163.456177 C 99.287903 147.119629 108.023865 133.324951 124.329987 129.717957 C 153.887695 123.179565 183.527557 117.013184 213.12561 110.656494 C 260.291626 100.526917 307.447479 90.350098 354.615479 80.229736 C 381.126282 74.541626 407.637329 68.852783 434.178406 63.308838 C 448.405151 60.337097 463.254456 70.174438 466.238892 84.468506 C 470.044373 102.694824 473.758179 120.941528 477.316711 139.217346 C 478.172485 143.612549 479.524231 145.327393 484.563538 144.230286 C 496.376892 141.658508 509.133179 149.766724 512.312805 161.721802 C 514.402405 169.578125 515.620178 177.665588 517.260803 185.642822 C 517.689697 187.728516 518.23999 189.789185 518.74884 191.921143 C 523.417847 192.195862 527.732544 191.10022 532.002563 192.13031 C 541.481384 194.416748 547.585876 199.965393 549.420959 209.799011 C 554.360291 236.267944 559.343811 262.728516 564.286987 289.196777 C 570.447815 322.184814 576.512817 355.190857 582.754028 388.163696 C 589.090149 421.638306 595.629089 455.074463 601.987305 488.544983 C 603.324402 495.583557 602.154053 502.298035 597.22345 507.728271 C 594.731018 510.473206 595.228455 512.397827 597.15918 515.02948 C 611.153625 534.105652 624.935547 553.338989 639.068848 572.310913 C 641.774414 575.942688 642.184998 578.632324 638.952087 581.744263 C 636.228699 584.365662 634.582886 588.01001 631.086243 590.257202 C 630.351074 589.692017 629.569702 589.317749 629.107666 588.703308 C 610.788635 564.341919 591.687195 540.546448 575.882935 514.375488 C 565.793823 497.668579 561.015869 479.235046 557.690979 460.28363 C 554.07196 439.655701 551.72113 418.730225 544.664124 398.866821 C 539.216614 383.533813 530.977112 369.974548 517.295776 360.402161 C 508.543213 354.278259 498.732666 352.515076 488.290161 353.481812 C 483.873108 353.890686 482.054626 356.168335 482.184692 360.7948 C 482.471558 370.994934 480.794556 380.901611 476.515076 390.841431 C 473.89917 388.374634 474.328857 385.520569 473.799744 383.124512 C 471.765564 373.91394 468.32782 365.29187 463.366455 357.308716 C 451.709839 338.552734 430.097046 330.647095 409.060547 337.323364 C 397.694702 340.930481 392.689392 347.949097 392.267578 359.854614 C 391.822754 372.407349 395.177612 384.224548 398.474121 396.091309 C 398.829834 397.371826 399.203064 398.648621 399.507568 399.941345 C 399.572937 400.218811 399.375427 400.558105 399.211853 401.223694 C 396.53595 401.340637 395.315125 399.107117 393.823608 397.588562 C 386.54425 390.177795 378.694458 383.548889 369.453613 378.653564 C 355.511108 371.2677 342.855164 376.047058 337.465942 391.072876 C 331.312897 408.228088 334.522705 424.567871 342.65741 440.203674 C 347.203552 448.941833 352.793091 457.037231 359.645569 464.200928 C 360.727722 465.332214 362.316406 466.360962 361.566406 468.958618 C 352.190735 467.200989 342.694702 466.023499 333.734619 462.273682 C 326.661133 459.313416 325.458435 459.849915 323.005402 467.211853 C 319.564606 477.538269 321.326813 487.574524 325.19574 497.803772 M 457.691223 131.603943 C 454.898743 117.745728 452.194519 103.868835 449.277832 90.036804 C 447.744324 82.764282 442.851624 79.544556 435.852295 80.997253 C 422.168335 83.83728 408.503296 86.76947 394.83844 89.700562 C 307.323517 108.472351 219.811066 127.25592 132.296783 146.030823 C 121.125 148.427551 118.494965 152.545776 120.752899 163.644409 C 129.004578 204.204712 137.112946 244.794495 145.480103 285.330933 C 146.86673 292.048645 147.41925 299.038818 150.12384 305.579041 C 151.436798 305.373901 152.249664 305.286499 153.045044 305.117188 C 219.258545 291.021912 285.467255 276.90387 351.689392 262.849243 C 357.19281 261.681213 360.957458 258.499084 363.50177 253.716125 C 367.489258 246.220093 371.464294 238.713867 375.249878 231.114929 C 377.983643 225.627319 382.408691 222.392944 388.135376 220.912354 C 394.251404 219.331055 400.433533 217.990601 406.616882 216.6875 C 426.631836 212.46936 446.659851 208.312866 466.684937 204.142883 C 469.573425 203.541382 472.394531 203.058167 471.525269 198.877991 C 466.92157 176.740173 462.382813 154.588867 457.691223 131.603943 Z"/>
    <path id="path2" fill="#000000" stroke="none" d="M 489.770752 458.314941 C 496.039612 459.494629 501.980835 460.310303 507.807312 461.632141 C 522.280273 464.915466 531.131104 474.129211 534.062378 488.503479 C 537.032654 503.06958 532.179749 515.07251 520.33728 524.079895 C 516.117981 527.289063 510.9198 528.3302 505.863647 529.199768 C 491.196289 531.722473 479.636047 538.943909 470.48877 550.676208 C 464.441833 558.432007 457.763916 565.464111 447.261597 567.685852 C 426.203125 572.140869 405.674988 552.856628 409.075562 531.48822 C 410.149963 524.736694 411.582092 518.0401 413.801331 511.622803 C 417.015991 502.327332 416.583862 492.975708 415.45575 483.533386 C 413.764282 469.374756 418.475037 457.796936 430.088745 449.683228 C 441.703369 441.568909 454.350708 440.12439 467.424927 446.480225 C 474.890442 450.109253 481.170959 455.965759 489.770752 458.314941 Z"/>
    <path id="path3" fill="#000000" stroke="none" d="M 448.726379 425.248474 C 438.888 428.259155 430.638245 425.283997 423.930969 418.968201 C 410.660522 406.472229 404.836975 391.025513 408.864136 372.858765 C 411.683289 360.141663 424.074524 353.750305 435.961426 359.078674 C 452.100769 366.313232 460.380371 379.593567 462.324402 396.920776 C 463.833496 410.372253 459.341064 419.709229 448.726379 425.248474 Z"/>
    <path id="path4" fill="#000000" stroke="none" d="M 356.166626 403.087097 C 362.102966 398.263489 368.510498 397.62146 375.273193 399.497742 C 393.537048 404.56488 409.252441 426.307983 407.46814 443.916626 C 405.854797 459.838318 393.452026 467.766602 378.281006 462.574097 C 361.905457 456.969299 348.913391 439.065002 348.671204 421.80249 C 348.570984 414.65625 350.739136 408.414917 356.166626 403.087097 Z"/>
    <path id="path5" fill="#000000" stroke="none" d="M 374.944824 530.289734 C 359.206299 529.685242 344.851135 519.068726 340.121338 504.871155 C 334.911743 489.233582 344.212524 476.8974 360.600159 477.708801 C 376.267212 478.484497 393.040833 493.64447 394.358582 508.219666 C 395.561157 521.521057 388.916382 529.253601 374.944824 530.289734 Z"/>
    <path id="path6" fill="#000000" stroke="none" d="M 482.628235 398.920654 C 484.216003 393.717041 486.221191 389.175537 489.822205 385.530212 C 497.328613 377.931396 507.430237 377.812683 515.121094 385.19928 C 526.607788 396.231506 529.370422 419.526123 520.77478 432.871521 C 513.664551 443.910889 500.782654 445.667053 491.420471 436.261902 C 481.124084 425.918396 479.116028 413.172241 482.628235 398.920654 Z"/>
    <path id="path7" fill="#000000" stroke="none" d="M 377.151428 154.857178 C 381.729492 150.645508 381.972046 146.200439 381.03186 140.494507 C 379.483276 131.096558 387.096802 122.312561 396.791138 120.638733 C 406.316711 118.994019 415.545044 124.583984 417.993958 133.838623 C 419.060791 137.870605 419.521301 141.737305 424.65332 142.973206 C 426.839417 143.499634 427.858093 146.128784 428.366638 148.54126 C 430.25 157.476624 432.342346 166.370178 434.084778 175.332153 C 435.271667 181.436768 433.322144 184.607727 427.325623 186.063843 C 415.699524 188.886963 404.013916 191.475464 392.314087 193.979248 C 388.53717 194.787476 384.743835 193.539978 383.672302 189.771606 C 380.460327 178.47583 377.086487 167.153625 377.151428 154.857178 M 391.78949 133.324341 C 389.780029 136.245544 389.711243 139.395325 390.180115 142.824585 C 390.693237 146.577148 391.973389 148.228577 395.992737 146.89325 C 398.481934 146.066284 401.243713 146.067505 403.74408 145.264038 C 406.112061 144.503113 409.858093 145.362366 410.424744 142.104248 C 411.057312 138.467102 409.724304 134.854004 406.926392 132.163391 C 402.7854 128.181213 397.490662 128.449402 391.78949 133.324341 M 400.93103 167.796143 C 402.963318 169.532227 403.541687 171.977661 404.094055 174.410645 C 404.495911 176.180481 405.45752 176.998047 407.296021 176.674316 C 409.248413 176.330505 409.666931 175.079712 409.247253 173.363647 C 408.724854 171.227417 408.533447 169.14325 409.30481 166.980835 C 410.237 164.36731 409.757751 162.038757 407.30127 160.398926 C 405.444214 159.159363 403.51593 159.008179 401.749084 160.467285 C 399.505066 162.320557 399.224365 164.640259 400.93103 167.796143 Z"/>
    <path id="path8" fill="#000000" stroke="none" d="M 248.470154 183.567688 C 223.354767 189.015991 198.633423 194.304688 173.950958 199.768921 C 170.418976 200.550903 169.198761 199.439575 168.554108 196.105103 C 166.278748 184.335815 164.859497 186.418091 176.532928 183.850708 C 228.336945 172.457458 280.186188 161.269165 332.040833 150.10791 C 334.286499 149.624512 337.312927 147.531616 338.958862 150.034668 C 341.233887 153.494507 341.786499 157.874146 341.672546 161.988037 C 341.618958 163.923157 338.847229 163.931396 337.125366 164.308472 C 315.68161 169.004639 294.22876 173.659241 272.776276 178.31543 C 264.812378 180.044067 256.843323 181.748779 248.470154 183.567688 Z"/>
    <path id="path9" fill="#000000" stroke="none" d="M 340.85144 200.043579 C 288.624084 211.376343 236.802856 222.606445 184.980835 233.833008 C 183.356232 234.184998 181.70401 234.426025 180.099609 234.850769 C 178.100128 235.380066 176.776428 234.677856 176.280334 232.756287 C 175.491638 229.701416 174.681 226.630493 174.230804 223.515564 C 173.702881 219.862549 177.014618 220.276123 178.977661 219.835449 C 194.222076 216.413208 209.506653 213.170166 224.775482 209.856384 C 262.623901 201.642212 300.470642 193.420166 338.31781 185.200195 C 339.942627 184.84729 341.576843 184.529419 343.185852 184.114624 C 345.630066 183.484497 347.039185 184.316406 347.422974 186.860535 C 347.546265 187.677979 347.872437 188.462463 348.05011 189.274231 C 349.951721 197.963501 349.948547 197.964172 340.85144 200.043579 Z"/>
    <path id="path10" fill="#000000" stroke="none" d="M 249.205078 256.343811 C 228.483582 260.813599 208.16214 265.148315 187.887421 269.691772 C 184.800415 270.383484 183.508392 269.443604 182.986908 266.643188 C 180.612671 253.892944 178.812134 256.33374 191.021027 253.662354 C 232.912964 244.496155 274.844177 235.508972 316.719757 226.269226 C 321.065948 225.310303 322.675507 226.379333 323.497437 230.656982 C 325.241821 239.735168 325.434265 239.694153 316.354828 241.679321 C 294.109558 246.543091 271.865143 251.410767 249.205078 256.343811 Z"/>
</svg>
